<svg width="112" height="29" viewBox="0 0 112 29" fill="none" xmlns="http://www.w3.org/2000/svg">
<path d="M7.54401 28.512C5.91201 28.512 4.64267 27.9947 3.73601 26.96C2.82934 25.9147 2.37601 24.4587 2.37601 22.592V15.344H0.184006V11.616H2.37601V5.47199H7.28801V11.616H10.888V15.344H7.28801V22.24C7.28801 22.8587 7.41067 23.328 7.65601 23.648C7.91201 23.968 8.26934 24.128 8.72801 24.128C9.24001 24.128 9.73067 23.9573 10.2 23.616L11.432 27.552C10.8773 27.8507 10.2533 28.0853 9.56001 28.256C8.87734 28.4267 8.20534 28.512 7.54401 28.512Z" fill="#111111"/>
<path d="M22.0388 28.512C20.5348 28.512 19.1641 28.1387 17.9268 27.392C16.7001 26.6347 15.7241 25.6 14.9988 24.288C14.2841 22.9653 13.9268 21.4613 13.9268 19.776C13.9268 18.1333 14.2734 16.6613 14.9668 15.36C15.6601 14.048 16.6148 13.0133 17.8308 12.256C19.0574 11.488 20.4601 11.104 22.0388 11.104C23.2014 11.104 24.2841 11.328 25.2868 11.776C26.3001 12.2133 27.1268 12.8267 27.7668 13.616V11.616H32.6788V28H27.7668V25.84C27.0201 26.704 26.1614 27.3653 25.1908 27.824C24.2201 28.2827 23.1694 28.512 22.0388 28.512ZM23.4948 24.336C24.3481 24.336 25.1054 24.144 25.7668 23.76C26.4281 23.3653 26.9454 22.8267 27.3188 22.144C27.6921 21.4613 27.8788 20.6827 27.8788 19.808C27.8788 18.9227 27.6868 18.144 27.3028 17.472C26.9294 16.7893 26.4121 16.256 25.7508 15.872C25.1001 15.4773 24.3481 15.28 23.4948 15.28C22.6521 15.28 21.9001 15.4773 21.2388 15.872C20.5774 16.256 20.0548 16.7893 19.6708 17.472C19.2868 18.1547 19.0948 18.9333 19.0948 19.808C19.0948 20.6827 19.2814 21.4613 19.6548 22.144C20.0388 22.8267 20.5614 23.3653 21.2228 23.76C21.8841 24.144 22.6414 24.336 23.4948 24.336Z" fill="#111111"/>
<path d="M42.5638 28.512C41.1771 28.512 39.9344 28.2933 38.8358 27.856C37.7478 27.4187 36.8411 26.7787 36.1158 25.936L38.1798 22.64C38.8624 23.3653 39.5771 23.92 40.3238 24.304C41.0704 24.688 41.8171 24.88 42.5638 24.88C42.9798 24.88 43.3371 24.8107 43.6358 24.672C43.9451 24.5333 44.1851 24.336 44.3558 24.08C44.5371 23.8133 44.6278 23.4933 44.6278 23.12C44.6278 22.6933 44.5051 22.3573 44.2598 22.112C44.0251 21.8667 43.6624 21.6427 43.1718 21.44C42.6811 21.2267 42.0464 20.96 41.2678 20.64C40.6064 20.3627 39.9718 20.048 39.3638 19.696C38.7558 19.344 38.2598 18.896 37.8758 18.352C37.5024 17.808 37.3158 17.12 37.3158 16.288C37.3158 15.2747 37.5984 14.384 38.1638 13.616C38.7291 12.8373 39.5078 12.2293 40.4998 11.792C41.5024 11.3547 42.6544 11.136 43.9558 11.136C44.7664 11.136 45.6144 11.2587 46.4998 11.504C47.3958 11.7493 48.3504 12.1227 49.3638 12.624L47.6838 15.776C46.3078 14.8907 45.0758 14.448 43.9878 14.448C43.3798 14.448 42.8944 14.5813 42.5318 14.848C42.1691 15.1147 41.9878 15.4507 41.9878 15.856C41.9878 16.24 42.1744 16.576 42.5478 16.864C42.9318 17.1413 43.3958 17.392 43.9398 17.616C44.4944 17.8293 45.0224 18.0267 45.5238 18.208C46.3451 18.5067 47.0704 18.8373 47.6998 19.2C48.3398 19.5627 48.8411 20.0373 49.2038 20.624C49.5664 21.2 49.7478 21.9733 49.7478 22.944C49.7478 24.128 49.4598 25.136 48.8838 25.968C48.3184 26.7893 47.4971 27.4187 46.4198 27.856C45.3531 28.2933 44.0678 28.512 42.5638 28.512Z" fill="#111111"/>
<path d="M53.8908 28V0.479996H58.8028V17.6L64.8508 11.616H71.2188L63.2028 19.648L71.5868 28H65.2828L58.8028 21.52V28H53.8908Z" fill="#111111"/>
<path d="M81.261 28.512C79.4903 28.512 77.901 28.1333 76.493 27.376C75.0957 26.608 73.9863 25.568 73.165 24.256C72.3437 22.944 71.933 21.4613 71.933 19.808C71.933 18.592 72.1623 17.456 72.621 16.4C73.0903 15.344 73.741 14.4213 74.573 13.632C75.405 12.832 76.3703 12.2133 77.469 11.776C78.5677 11.328 79.757 11.104 81.037 11.104C82.7437 11.104 84.237 11.4613 85.517 12.176C86.8077 12.88 87.8103 13.8613 88.525 15.12C89.2503 16.3787 89.613 17.8453 89.613 19.52C89.613 19.6587 89.6077 19.7813 89.597 19.888C89.597 19.984 89.581 20.1707 89.549 20.448H76.989C76.989 21.28 77.1757 22.0053 77.549 22.624C77.933 23.2427 78.4663 23.728 79.149 24.08C79.8317 24.4213 80.6263 24.592 81.533 24.592C82.3863 24.592 83.1383 24.4267 83.789 24.096C84.4503 23.7653 85.085 23.2373 85.693 22.512L89.229 24.288C88.461 25.6107 87.373 26.6453 85.965 27.392C84.557 28.1387 82.989 28.512 81.261 28.512ZM77.165 17.728H84.781C84.6743 17.0987 84.445 16.5547 84.093 16.096C83.7517 15.6373 83.3143 15.2853 82.781 15.04C82.2477 14.7947 81.645 14.672 80.973 14.672C80.2583 14.672 79.629 14.7947 79.085 15.04C78.541 15.2853 78.1037 15.6373 77.773 16.096C77.4423 16.5547 77.2397 17.0987 77.165 17.728Z" fill="#111111"/>
<path d="M100.421 28.512C98.9386 28.512 97.5839 28.144 96.3573 27.408C95.1413 26.6613 94.1706 25.632 93.4453 24.32C92.7199 23.008 92.3573 21.504 92.3573 19.808C92.3573 18.144 92.7093 16.6613 93.4133 15.36C94.1173 14.048 95.0826 13.0133 96.3093 12.256C97.5466 11.488 98.9599 11.104 100.549 11.104C101.701 11.104 102.768 11.328 103.749 11.776C104.731 12.2133 105.547 12.8267 106.197 13.616V0.479996H111.109V28H106.197V25.84C105.472 26.6827 104.613 27.3387 103.621 27.808C102.629 28.2773 101.563 28.512 100.421 28.512ZM101.893 24.336C102.757 24.336 103.52 24.144 104.181 23.76C104.843 23.3653 105.36 22.8267 105.733 22.144C106.117 21.4613 106.309 20.688 106.309 19.824C106.309 18.9493 106.117 18.1707 105.733 17.488C105.36 16.8053 104.843 16.2667 104.181 15.872C103.52 15.4773 102.763 15.28 101.909 15.28C101.067 15.28 100.315 15.4773 99.6533 15.872C99.0026 16.2667 98.4853 16.8107 98.1013 17.504C97.7173 18.1867 97.5253 18.9653 97.5253 19.84C97.5253 20.704 97.7119 21.4773 98.0853 22.16C98.4586 22.832 98.9759 23.3653 99.6373 23.76C100.299 24.144 101.051 24.336 101.893 24.336Z" fill="#111111"/>
</svg>
