<svg width="155" height="56" viewBox="0 0 155 56" fill="none" xmlns="http://www.w3.org/2000/svg">
<rect width="155" height="56" fill="white"/>
<path d="M28.544 38.512C26.912 38.512 25.6427 37.9947 24.736 36.96C23.8293 35.9147 23.376 34.4587 23.376 32.592V25.344H21.184V21.616H23.376V15.472H28.288V21.616H31.888V25.344H28.288V32.24C28.288 32.8587 28.4107 33.328 28.656 33.648C28.912 33.968 29.2693 34.128 29.728 34.128C30.24 34.128 30.7307 33.9573 31.2 33.616L32.432 37.552C31.8773 37.8507 31.2533 38.0853 30.56 38.256C29.8773 38.4267 29.2053 38.512 28.544 38.512ZM43.0388 38.512C41.5348 38.512 40.1641 38.1387 38.9268 37.392C37.7001 36.6347 36.7241 35.6 35.9988 34.288C35.2841 32.9653 34.9268 31.4613 34.9268 29.776C34.9268 28.1333 35.2734 26.6613 35.9668 25.36C36.6601 24.048 37.6148 23.0133 38.8308 22.256C40.0574 21.488 41.4601 21.104 43.0388 21.104C44.2014 21.104 45.2841 21.328 46.2868 21.776C47.3001 22.2133 48.1268 22.8267 48.7668 23.616V21.616H53.6788V38H48.7668V35.84C48.0201 36.704 47.1614 37.3653 46.1908 37.824C45.2201 38.2827 44.1694 38.512 43.0388 38.512ZM44.4948 34.336C45.3481 34.336 46.1054 34.144 46.7668 33.76C47.4281 33.3653 47.9454 32.8267 48.3188 32.144C48.6921 31.4613 48.8788 30.6827 48.8788 29.808C48.8788 28.9227 48.6868 28.144 48.3028 27.472C47.9294 26.7893 47.4121 26.256 46.7508 25.872C46.1001 25.4773 45.3481 25.28 44.4948 25.28C43.6521 25.28 42.9001 25.4773 42.2388 25.872C41.5774 26.256 41.0548 26.7893 40.6708 27.472C40.2868 28.1547 40.0948 28.9333 40.0948 29.808C40.0948 30.6827 40.2814 31.4613 40.6548 32.144C41.0388 32.8267 41.5614 33.3653 42.2228 33.76C42.8841 34.144 43.6414 34.336 44.4948 34.336ZM63.5637 38.512C62.1771 38.512 60.9344 38.2933 59.8357 37.856C58.7477 37.4187 57.8411 36.7787 57.1157 35.936L59.1797 32.64C59.8624 33.3653 60.5771 33.92 61.3237 34.304C62.0704 34.688 62.8171 34.88 63.5637 34.88C63.9797 34.88 64.3371 34.8107 64.6357 34.672C64.9451 34.5333 65.1851 34.336 65.3557 34.08C65.5371 33.8133 65.6277 33.4933 65.6277 33.12C65.6277 32.6933 65.5051 32.3573 65.2597 32.112C65.0251 31.8667 64.6624 31.6427 64.1717 31.44C63.6811 31.2267 63.0464 30.96 62.2677 30.64C61.6064 30.3627 60.9717 30.048 60.3637 29.696C59.7557 29.344 59.2597 28.896 58.8757 28.352C58.5024 27.808 58.3157 27.12 58.3157 26.288C58.3157 25.2747 58.5984 24.384 59.1637 23.616C59.7291 22.8373 60.5077 22.2293 61.4997 21.792C62.5024 21.3547 63.6544 21.136 64.9557 21.136C65.7664 21.136 66.6144 21.2587 67.4997 21.504C68.3957 21.7493 69.3504 22.1227 70.3637 22.624L68.6837 25.776C67.3077 24.8907 66.0757 24.448 64.9877 24.448C64.3797 24.448 63.8944 24.5813 63.5317 24.848C63.1691 25.1147 62.9877 25.4507 62.9877 25.856C62.9877 26.24 63.1744 26.576 63.5477 26.864C63.9317 27.1413 64.3957 27.392 64.9397 27.616C65.4944 27.8293 66.0224 28.0267 66.5237 28.208C67.3451 28.5067 68.0704 28.8373 68.6997 29.2C69.3397 29.5627 69.8411 30.0373 70.2037 30.624C70.5664 31.2 70.7477 31.9733 70.7477 32.944C70.7477 34.128 70.4597 35.136 69.8837 35.968C69.3184 36.7893 68.4971 37.4187 67.4197 37.856C66.3531 38.2933 65.0677 38.512 63.5637 38.512ZM74.8908 38V10.48H79.8028V27.6L85.8508 21.616H92.2188L84.2028 29.648L92.5868 38H86.2828L79.8028 31.52V38H74.8908ZM102.261 38.512C100.49 38.512 98.901 38.1333 97.493 37.376C96.0957 36.608 94.9863 35.568 94.165 34.256C93.3437 32.944 92.933 31.4613 92.933 29.808C92.933 28.592 93.1623 27.456 93.621 26.4C94.0903 25.344 94.741 24.4213 95.573 23.632C96.405 22.832 97.3703 22.2133 98.469 21.776C99.5677 21.328 100.757 21.104 102.037 21.104C103.744 21.104 105.237 21.4613 106.517 22.176C107.808 22.88 108.81 23.8613 109.525 25.12C110.25 26.3787 110.613 27.8453 110.613 29.52C110.613 29.6587 110.608 29.7813 110.597 29.888C110.597 29.984 110.581 30.1707 110.549 30.448H97.989C97.989 31.28 98.1757 32.0053 98.549 32.624C98.933 33.2427 99.4663 33.728 100.149 34.08C100.832 34.4213 101.626 34.592 102.533 34.592C103.386 34.592 104.138 34.4267 104.789 34.096C105.45 33.7653 106.085 33.2373 106.693 32.512L110.229 34.288C109.461 35.6107 108.373 36.6453 106.965 37.392C105.557 38.1387 103.989 38.512 102.261 38.512ZM98.165 27.728H105.781C105.674 27.0987 105.445 26.5547 105.093 26.096C104.752 25.6373 104.314 25.2853 103.781 25.04C103.248 24.7947 102.645 24.672 101.973 24.672C101.258 24.672 100.629 24.7947 100.085 25.04C99.541 25.2853 99.1037 25.6373 98.773 26.096C98.4423 26.5547 98.2397 27.0987 98.165 27.728ZM121.421 38.512C119.939 38.512 118.584 38.144 117.357 37.408C116.141 36.6613 115.171 35.632 114.445 34.32C113.72 33.008 113.357 31.504 113.357 29.808C113.357 28.144 113.709 26.6613 114.413 25.36C115.117 24.048 116.083 23.0133 117.309 22.256C118.547 21.488 119.96 21.104 121.549 21.104C122.701 21.104 123.768 21.328 124.749 21.776C125.731 22.2133 126.547 22.8267 127.197 23.616V10.48H132.109V38H127.197V35.84C126.472 36.6827 125.613 37.3387 124.621 37.808C123.629 38.2773 122.563 38.512 121.421 38.512ZM122.893 34.336C123.757 34.336 124.52 34.144 125.181 33.76C125.843 33.3653 126.36 32.8267 126.733 32.144C127.117 31.4613 127.309 30.688 127.309 29.824C127.309 28.9493 127.117 28.1707 126.733 27.488C126.36 26.8053 125.843 26.2667 125.181 25.872C124.52 25.4773 123.763 25.28 122.909 25.28C122.067 25.28 121.315 25.4773 120.653 25.872C120.003 26.2667 119.485 26.8107 119.101 27.504C118.717 28.1867 118.525 28.9653 118.525 29.84C118.525 30.704 118.712 31.4773 119.085 32.16C119.459 32.832 119.976 33.3653 120.637 33.76C121.299 34.144 122.051 34.336 122.893 34.336Z" fill="#111111"/>
</svg>
